<mxfile host="app.diagrams.net" modified="2024-03-11T09:47:11.269Z" agent="Mozilla/5.0 (X11; Linux x86_64) AppleWebKit/537.36 (KHTML, like Gecko) Chrome/122.0.0.0 Safari/537.36" version="24.0.4" etag="VeG0fzy63i-H7ok2IaiO" type="github">
  <diagram name="Page-1" id="n_Y_6kVa283CTq_pVSDH">
    <mxGraphModel>
      <root>
        <mxCell id="0" />
        <mxCell id="1" parent="0" />
      </root>
    </mxGraphModel>
  </diagram>
</mxfile>
